<svg width="50" height="39" viewBox="0 0 50 39" fill="none" xmlns="http://www.w3.org/2000/svg">
<path d="M32.1461 21.9L27.4461 38.2L39.3461 38.2L45.7461 23.5C48.6461 17.1 49.0461 14.9 49.0461 12.1C49.0461 5.3 44.2461 0.900001 37.6461 0.900001C31.1461 0.9 26.2461 5.3 26.2461 12.1C26.2461 16.8 28.5461 20.2 32.1461 21.9ZM5.94609 21.9L1.2461 38.2L13.1461 38.2L19.5461 23.5C22.4461 17.1 22.8461 14.9 22.8461 12.1C22.8461 5.3 18.0461 0.899999 11.4461 0.899998C4.9461 0.899998 0.0460967 5.3 0.0460961 12.1C0.0460957 16.8 2.3461 20.2 5.94609 21.9Z" fill="#706FE5"/>
</svg>
