<svg width="125" height="125" viewBox="0 0 125 125" fill="none" xmlns="http://www.w3.org/2000/svg">
<g opacity="0.8" filter="url(#filter0_d_19_153)">
<circle cx="62.665" cy="56.6649" r="42" transform="rotate(-17.8082 62.665 56.6649)" fill="#2B2C34"/>
</g>
<path d="M109.82 43.9875C116.914 66.072 104.762 89.726 82.6774 96.82C60.5929 103.914 36.9389 91.7618 29.8449 69.6773C22.7509 47.5928 34.9031 23.9388 56.9876 16.8448C79.0722 9.75075 102.726 21.903 109.82 43.9875Z" fill="#2B2C34"/>
<circle cx="69.8325" cy="56.8324" r="42" transform="rotate(-17.8082 69.8325 56.8324)" fill="#706FE5" fill-opacity="0.15"/>
<g clip-path="url(#clip0_19_153)">
<path d="M69.7517 82.3172C71.7718 81.6684 73.4514 80.2436 74.4209 78.3563C75.3905 76.4691 75.5707 74.274 74.9218 72.2539L72.4751 64.6372L64.8584 67.0839C62.8384 67.7328 61.1588 69.1575 60.1892 71.0448C59.2197 72.932 59.0395 75.1271 59.6884 77.1472C60.3373 79.1673 61.7621 80.8468 63.6493 81.8164C65.5366 82.786 67.7317 82.9661 69.7517 82.3172Z" fill="#0ACF83"/>
<path d="M54.7951 61.9138C54.1462 59.8937 54.3264 57.6986 55.2959 55.8114C56.2655 53.9241 57.9451 52.4994 59.9651 51.8505L67.5818 49.4038L72.4751 64.6372L64.8584 67.0838C62.8384 67.7327 60.6433 67.5526 58.756 66.583C56.8688 65.6134 55.444 63.9339 54.7951 61.9138Z" fill="#A259FF"/>
<path d="M49.9018 46.6804C49.2532 44.6614 49.4329 42.4674 50.4012 40.5808C51.3695 38.6941 53.0473 37.2691 55.0659 36.619L62.6826 34.1723L67.5759 49.4057L59.9651 51.8504C57.9451 52.4993 55.7499 52.3192 53.8627 51.3496C51.9755 50.38 50.5507 48.7005 49.9018 46.6804Z" fill="#F24E1E"/>
<path d="M62.6885 34.1705L70.3052 31.7239C72.3253 31.075 74.5204 31.2551 76.4076 32.2247C78.2949 33.1943 79.7197 34.8739 80.3686 36.8939C81.0175 38.914 80.8373 41.1091 79.8677 42.9963C78.8982 44.8836 77.2186 46.3084 75.1985 46.9573L67.5818 49.4039L62.6885 34.1705Z" fill="#FF7262"/>
<path d="M85.2619 52.1272C85.9108 54.1473 85.7306 56.3424 84.761 58.2296C83.7915 60.1169 82.1119 61.5416 80.0918 62.1905C78.0718 62.8394 75.8767 62.6593 73.9894 61.6897C72.1022 60.7201 70.6774 59.0406 70.0285 57.0205C69.3796 55.0004 69.5598 52.8053 70.5293 50.9181C71.4989 49.0308 73.1785 47.6061 75.1985 46.9572C77.2186 46.3083 79.4137 46.4884 81.301 47.458C83.1882 48.4276 84.613 50.1071 85.2619 52.1272Z" fill="#1ABCFE"/>
</g>
<defs>
<filter id="filter0_d_19_153" x="0.653687" y="0.653564" width="124.023" height="124.023" filterUnits="userSpaceOnUse" color-interpolation-filters="sRGB">
<feFlood flood-opacity="0" result="BackgroundImageFix"/>
<feColorMatrix in="SourceAlpha" type="matrix" values="0 0 0 0 0 0 0 0 0 0 0 0 0 0 0 0 0 0 127 0" result="hardAlpha"/>
<feOffset dy="6"/>
<feGaussianBlur stdDeviation="10"/>
<feComposite in2="hardAlpha" operator="out"/>
<feColorMatrix type="matrix" values="0 0 0 0 0.168627 0 0 0 0 0.172549 0 0 0 0 0.203922 0 0 0 0.2 0"/>
<feBlend mode="normal" in2="BackgroundImageFix" result="effect1_dropShadow_19_153"/>
<feBlend mode="normal" in="SourceGraphic" in2="effect1_dropShadow_19_153" result="shape"/>
</filter>
<clipPath id="clip0_19_153">
<rect width="48" height="48" fill="white" transform="translate(39.8325 41.5123) rotate(-17.8082)"/>
</clipPath>
</defs>
</svg>
